<svg xmlns="http://www.w3.org/2000/svg" width="32" height="32" viewBox="0 0 32 32">
  <rect width="32" height="32" rx="6" fill="#1e3a5f"/>
  <svg x="4" y="4" width="24" height="24" viewBox="0 0 256 256" fill="white">
    <path d="M120,104a8,8,0,1,1-8-8A8,8,0,0,1,120,104Zm24-8a8,8,0,1,0,8,8A8,8,0,0,0,144,96Zm80.18,40.15a8,8,0,0,1-3.91,5.13,7.84,7.84,0,0,1-3.16,1,88.15,88.15,0,0,1-34.11,49.6V200a24,24,0,0,1-24,24H97a24,24,0,0,1-24-24v-8.12a88.15,88.15,0,0,1-34.11-49.6,7.84,7.84,0,0,1-3.16-1A8,8,0,0,1,31.82,136.15l.07-.21A7.93,7.93,0,0,1,35.44,132V88a52,52,0,0,1,80-43.81A52,52,0,0,1,195.44,88v44a7.93,7.93,0,0,1,3.55,3.94l.07.21A7.93,7.93,0,0,1,224.18,136.15ZM89,136a52,52,0,0,0,26-6.74V88A36,36,0,0,0,51.44,88v41.26A52,52,0,0,0,89,136Zm78,0a52,52,0,0,0,37.56-6.74V88A36,36,0,0,0,141,88v41.26A52,52,0,0,0,167,136Zm22.39,16H66.61A72.13,72.13,0,0,0,89,200.44V200a8,8,0,0,1,8-8h62a8,8,0,0,1,8,8v.44A72.13,72.13,0,0,0,189.39,152Z"/>
  </svg>
</svg>
